<svg width="1000" height="1000" viewBox="0 0 1000 1000" xmlns="http://www.w3.org/2000/svg"><defs/><path fill="#3a89ff" transform="matrix(4.259183611138683 0 0 4.259183611138683 -181.0421191055046 -180.52618022097164)" d="M 130.56468531162 172.66317713389 L 133.11468531162 154.07317713389 L 134.74468531162 174.72317713389 L 130.56468531162 172.66317713389 Z"/><path fill="#3a89ff" transform="matrix(4.259183611138683 0 0 4.259183611138683 -181.0421191055046 -180.52618022097164)" d="M 188.44468531162 172.66317713389 L 190.99468531162 154.07317713389 L 192.62468531162 174.72317713389 L 188.44468531162 172.66317713389 Z"/><path fill="#3a89ff" transform="matrix(4.259183611138683 0 0 4.259183611138683 -181.0421191055046 -180.52618022097164)" d="M 161.00468531162 192.91317713389 L 162.87468531162 172.11317713389 L 164.72468531162 192.91317713389 L 161.00468531162 192.91317713389 Z"/><path fill="#3a89ff" transform="matrix(4.259183611138683 0 0 4.259183611138683 -181.0421191055046 -180.52618022097164)" d="M 217.87468531162 148.54317713389 L 193.33468531162 126.14317713389 L 188.55468531162 129.82317713389 C 187.43468531162 132.13317713389 186.18468531162 134.57317713389 184.79468531162 137.17317713389 L 183.91468531162 138.81317713389 L 183.91468531162 138.81317713389 C 182.71468531162 141.02317713389 181.42468531162 143.31317713389 180.07468531162 145.63317713389 L 179.47468531162 146.63317713389 L 192.91468531162 136.29317713389 L 210.36468531162 152.21317713389 L 213.36468531162 187.60317713389 L 190.53468531162 170.04317713389 L 162.83468531162 191.41317713389 L 132.47468531162 168.04317713389 L 106.36468531162 188.13317713389 L 109.36468531162 151.59317713389 L 133.04468531162 134.59317713389 L 144.21468531162 143.19317713389 C 142.73468531162 140.57317713389 141.40468531162 138.19317713389 140.21468531162 135.85317713389 C 138.50801864495 132.60651046722 137.01468531162 129.60651046722 135.73468531162 126.85317713389 L 133.22468531162 124.83317713389 L 101.91468531162 147.35317713389 L 97.13468531162 205.09317713389 L 132.47468531162 177.89317713389 L 162.83468531162 201.26317713389 L 190.55468531162 179.92317713389 L 222.66468531162 204.64317713389 Z"/><path fill="#3a89ff" transform="matrix(4.259183611138683 0 0 4.259183611138683 -181.0421191055046 -180.52618022097164)" d="M 162.86468531162 77.60317713389 C 154.97276182296 77.60317668805 147.40421705433 80.73891536348 141.8247222479 86.32028563034 C 136.24522744148 91.90165589721 133.11203256423 99.47125409107 133.11468531162 107.36317713389 C 133.11468531162 113.70317713389 137.54468531162 124.04317713389 142.98468531162 134.36317713389 C 144.59468531162 137.42317713389 146.30468531162 140.48317713389 147.98468531162 143.43317713389 C 155.42468531162 156.31317713389 162.85468531162 167.14317713389 162.85468531162 167.14317713389 C 162.85468531162 167.14317713389 170.04468531162 156.67317713389 177.34468531162 144.06317713389 L 177.34468531162 144.06317713389 C 178.92468531162 141.35317713389 180.50468531162 138.53317713389 182.01468531162 135.69317713389 L 182.01468531162 135.69317713389 C 187.76468531162 124.94317713389 192.59468531162 113.97317713389 192.59468531162 107.36317713389 C 192.60021055891 90.93660858124 179.29125108217 77.61421927657 162.86468531162 77.60317713389 Z M 162.86468531162 122.29317713389 C 156.18206050061 122.29722230703 150.15520065029 118.27481925565 147.59506742312 112.10203960729 C 145.03493419594 105.92925995893 146.44584586609 98.82207386159 151.16974521764 94.09531327483 C 155.89364456918 89.36855268807 162.99997504237 87.9533378037 169.17430374562 90.5097328812 C 175.34863244887 93.06612795871 179.37468408729 99.09055109856 179.37468531162 105.77317713389 C 179.37469199216 114.88911641888 171.99061791608 122.28214088778 162.87468531162 122.29317713389 Z"/><path fill="#3a89ff" transform="matrix(4.259183611138683 0 0 4.259183611138683 -181.0421191055046 -180.52618022097164)" d="M 106.31468531162 169.42317713389 L 104.79468531162 168.11317713389 L 105.79468531162 166.98317713389 L 107.27468531162 168.32317713389 C 106.66468531162 169.01317713389 106.31468531162 169.41317713389 106.31468531162 169.42317713389 Z"/><path fill="#3a89ff" transform="matrix(4.259183611138683 0 0 4.259183611138683 -181.0421191055046 -180.52618022097164)" d="M 162.07468531162 171.33317713389 C 161.06805175369 171.33556293287 160.06349102718 171.24180393172 159.07468531162 171.05317713389 L 159.46468531162 169.05317713389 C 160.33421686116 169.22385545282 161.21857209554 169.30760121365 162.10468531162 169.30317713389 L 162.22468531162 169.30317713389 L 162.22468531162 171.30317713389 L 162.10468531162 171.30317713389 Z M 165.30468531162 171.06317713389 L 164.99468531162 169.06317713389 L 165.37468531162 169.00317713389 C 166.17468531162 168.85317713389 166.99468531162 168.67317713389 167.79468531162 168.45317713389 L 168.31468531162 170.38317713389 C 167.45468531162 170.61317713389 166.59468531162 170.81317713389 165.73468531162 170.96317713389 Z M 156.01468531162 170.06317713389 C 155.04830241449 169.62637439696 154.13001949447 169.09015079403 153.27468531162 168.46317713389 L 154.45468531162 166.84317713389 C 155.19560253002 167.39371473172 155.99351272154 167.8630736679 156.83468531162 168.24317713389 Z M 171.22468531162 169.44317713389 L 170.52468531162 167.57317713389 C 171.40468531162 167.24317713389 172.29468531162 166.86317713389 173.18468531162 166.44317713389 L 174.04468531162 168.24317713389 C 173.10468531162 168.71317713389 172.15468531162 169.11317713389 171.22468531162 169.46317713389 Z M 176.73468531162 166.83317713389 L 175.73468531162 165.09317713389 C 176.52468531162 164.64317713389 177.34468531162 164.09317713389 178.23468531162 163.57317713389 L 179.31468531162 165.25317713389 C 178.40468531162 165.87317713389 177.55468531162 166.38317713389 176.73468531162 166.85317713389 Z M 150.91468531162 166.40317713389 C 150.20761468295 165.66561606085 149.54001703066 164.89120278419 148.91468531162 164.08317713389 L 150.47468531162 162.84317713389 C 151.06557735842 163.5964805939 151.69648525127 164.31751818574 152.36468531162 165.00317713389 Z M 109.29468531162 166.21317713389 L 107.84468531162 164.83317713389 C 108.46468531162 164.18317713389 109.16468531162 163.45317713389 109.93468531162 162.68317713389 L 111.35468531162 164.09317713389 C 110.59468531162 164.80317713389 109.90468531162 165.52317713389 109.29468531162 166.21317713389 Z M 181.82468531162 163.65317713389 L 180.68468531162 162.00317713389 L 182.42468531162 160.78317713389 L 183.11468531162 160.30317713389 L 184.26468531162 161.93317713389 L 183.57468531162 162.42317713389 Z M 113.46468531162 162.03317713389 L 112.08468531162 160.58317713389 C 112.79468531162 159.92317713389 113.52468531162 159.23317713389 114.29468531162 158.58317713389 L 115.63468531162 160.07317713389 C 114.87468531162 160.66317713389 114.15468531162 161.33317713389 113.46468531162 161.98317713389 Z M 147.08468531162 161.72317713389 C 146.60468531162 161.05317713389 146.08468531162 160.36317713389 145.65468531162 159.72317713389 L 145.37468531162 159.31317713389 L 147.02468531162 158.17317713389 L 147.30468531162 158.58317713389 L 148.71468531162 160.58317713389 Z M 210.66468531162 161.35317713389 C 209.87468531162 160.96317713389 208.98468531162 160.55317713389 208.01468531162 160.14317713389 L 208.79468531162 158.30317713389 C 209.79468531162 158.73317713389 210.72468531162 159.15317713389 211.55468531162 159.55317713389 Z M 186.66468531162 160.27317713389 L 185.56468531162 158.60317713389 C 186.51468531162 157.97317713389 187.36468531162 157.45317713389 188.15468531162 157.00317713389 L 189.15468531162 158.74317713389 C 188.40468531162 159.11317713389 187.59468531162 159.61317713389 186.68468531162 160.21317713389 Z M 205.26468531162 159.03317713389 C 204.42468531162 158.70317713389 203.50468531162 158.36317713389 202.50468531162 158.03317713389 L 203.18468531162 156.15317713389 C 204.18468531162 156.51317713389 205.18468531162 156.86317713389 205.99468531162 157.15317713389 Z M 117.82468531162 158.10317713389 L 116.54468531162 156.57317713389 C 117.30468531162 155.92317713389 118.08468531162 155.29317713389 118.88468531162 154.67317713389 L 120.13468531162 156.21317713389 C 119.35468531162 156.80317713389 118.59468531162 157.42317713389 117.84468531162 158.05317713389 Z M 191.68468531162 157.50317713389 L 190.94468531162 155.64317713389 C 191.914741326 155.25360116508 192.9191179222 154.9556361082 193.94468531162 154.75317713389 L 194.29468531162 156.75317713389 C 193.41067911573 156.90189696165 192.54325340905 157.13633634183 191.70468531162 157.45317713389 Z M 199.74468531162 157.05317713389 C 198.87016452393 156.78562737918 197.96737653097 156.62117900871 197.05468531162 156.56317713389 L 197.17468531162 154.56317713389 C 198.2391058422 154.63730911242 199.29212227335 154.82846177667 200.31468531162 155.13317713389 Z M 143.66468531162 156.86317713389 C 143.01468531162 155.98317713389 142.43468531162 155.23317713389 141.87468531162 154.57317713389 L 143.42468531162 153.21317713389 C 144.01468531162 153.90317713389 144.62468531162 154.69317713389 145.29468531162 155.61317713389 Z M 122.46468531162 154.50317713389 L 121.31468531162 152.87317713389 C 122.16468531162 152.26317713389 123.02468531162 151.70317713389 123.84468531162 151.19317713389 L 124.84468531162 152.90317713389 C 124.12468531162 153.33317713389 123.30468531162 153.87317713389 122.48468531162 154.45317713389 Z M 139.91468531162 152.50317713389 C 139.2364362446 151.86859656014 138.49984034038 151.29940881598 137.71468531162 150.80317713389 L 138.78468531162 149.11317713389 C 139.67121346662 149.67631295474 140.50465089217 150.31896349974 141.27468531162 151.03317713389 Z M 127.41468531162 151.50317713389 L 126.51468531162 149.71317713389 C 127.44005404254 149.25122189238 128.39168325694 148.84385780762 129.36468531162 148.49317713389 L 130.03468531162 150.38317713389 C 129.14601521257 150.67993304798 128.27752598653 151.03400942475 127.43468531162 151.44317713389 Z M 135.33468531162 149.77317713389 C 134.8590108973 149.68946725193 134.37757613496 149.64266109448 133.89468531162 149.63317713389 C 133.50008253536 149.63559166203 133.10600309173 149.66230891244 132.71468531162 149.71317713389 L 132.44468531162 147.71317713389 C 132.92946849633 147.6254960628 133.42249387632 147.5919569213 133.91468531162 147.61317713389 C 134.52920148286 147.61116531684 135.14233784265 147.67147381124 135.74468531162 147.79317713389 Z"/><path fill="#3a89ff" transform="matrix(4.259183611138683 0 0 4.259183611138683 -181.0421191055046 -180.52618022097164)" d="M 214.22468531162 163.41317713389 C 213.91563639765 163.14694232881 213.58062066279 162.91243131441 213.22468531162 162.71317713389 L 214.30468531162 161.02317713389 C 214.8237757446 161.32215787311 215.29839360124 161.69242712297 215.71468531162 162.12317713389 L 214.22468531162 163.41317713389 Z"/><path id="text" fill="#3a89ff" transform="matrix(1.5123755530973448 0 0 1.5123755530973448 -3.4845132743362823 754.2284955752211)" d="M 181.75771428571 -4.83478674286 L 181.75771428571 8.31721325714 L 163.90171428571 8.31721325714 L 163.90171428571 62.55721325714 L 147.48571428571 62.55721325714 L 147.48571428571 8.31721325714 L 129.62971428571 8.31721325714 L 129.62971428571 -4.83478674286 L 181.75771428571 -4.83478674286 Z M 213.62971428571 10.95721325714 C 216.50971428571 9.26121325714 219.70971428571 8.41321325714 223.22971428571 8.41321325714 L 223.22971428571 25.78921325714 L 218.71771428571 25.78921325714 C 214.62171428571 25.78921325714 211.54971428571 26.66921325714 209.50171428571 28.42921325714 C 207.45371428571 30.18921325714 206.42971428571 33.27721325714 206.42971428571 37.69321325714 L 206.42971428571 62.55721325714 L 190.01371428571 62.55721325714 L 190.01371428571 8.98921325714 L 206.42971428571 8.98921325714 L 206.42971428571 17.91721325714 C 208.34971428571 14.97321325714 210.74971428571 12.65321325714 213.62971428571 10.95721325714 Z M 230.95771428571 21.18121325714 C 233.03771428571 17.02121325714 235.86971428571 13.82121325714 239.45371428571 11.58121325714 C 243.03771428571 9.34121325714 247.03771428571 8.22121325714 251.45371428571 8.22121325714 C 255.22971428571 8.22121325714 258.54171428571 8.98921325714 261.38971428571 10.52521325714 C 264.23771428571 12.06121325714 266.42971428571 14.07721325714 267.96571428571 16.57321325714 L 267.96571428571 8.98921325714 L 284.38171428571 8.98921325714 L 284.38171428571 62.55721325714 L 267.96571428571 62.55721325714 L 267.96571428571 54.97321325714 C 266.36571428571 57.46921325714 264.14171428571 59.48521325714 261.29371428571 61.02121325714 C 258.44571428571 62.55721325714 255.13371428571 63.32521325714 251.35771428571 63.32521325714 C 247.00571428571 63.32521325714 243.03771428571 62.18921325714 239.45371428571 59.91721325714 C 235.86971428571 57.64521325714 233.03771428571 54.41321325714 230.95771428571 50.22121325714 C 228.87771428571 46.02921325714 227.83771428571 41.18121325714 227.83771428571 35.67721325714 C 227.83771428571 30.17321325714 228.87771428571 25.34121325714 230.95771428571 21.18121325714 Z M 264.55771428571 26.07721325714 C 262.28571428571 23.70921325714 259.51771428571 22.52521325714 256.25371428571 22.52521325714 C 252.98971428571 22.52521325714 250.22171428571 23.69321325714 247.94971428571 26.02921325714 C 245.67771428571 28.36521325714 244.54171428571 31.58121325714 244.54171428571 35.67721325714 C 244.54171428571 39.77321325714 245.67771428571 43.02121325714 247.94971428571 45.42121325714 C 250.22171428571 47.82121325714 252.98971428571 49.02121325714 256.25371428571 49.02121325714 C 259.51771428571 49.02121325714 262.28571428571 47.83721325714 264.55771428571 45.46921325714 C 266.82971428571 43.10121325714 267.96571428571 39.86921325714 267.96571428571 35.77321325714 C 267.96571428571 31.67721325714 266.82971428571 28.44521325714 264.55771428571 26.07721325714 Z M 320.38171428571 47.19721325714 L 331.99771428571 8.98921325714 L 349.46971428571 8.98921325714 L 330.46171428571 62.55721325714 L 310.20571428571 62.55721325714 L 291.19771428571 8.98921325714 L 308.76571428571 8.98921325714 L 320.38171428571 47.19721325714 Z M 406.58971428571 39.70921325714 L 369.43771428571 39.70921325714 C 369.69371428571 43.03721325714 370.76571428571 45.58121325714 372.65371428571 47.34121325714 C 374.54171428571 49.10121325714 376.86171428571 49.98121325714 379.61371428571 49.98121325714 C 383.70971428571 49.98121325714 386.55771428571 48.25321325714 388.15771428571 44.79721325714 L 405.62971428571 44.79721325714 C 404.73371428571 48.31721325714 403.11771428571 51.48521325714 400.78171428571 54.30121325714 C 398.44571428571 57.11721325714 395.51771428571 59.32521325714 391.99771428571 60.92521325714 C 388.47771428571 62.52521325714 384.54171428571 63.32521325714 380.18971428571 63.32521325714 C 374.94171428571 63.32521325714 370.26971428571 62.20521325714 366.17371428571 59.96521325714 C 362.07771428571 57.72521325714 358.87771428571 54.52521325714 356.57371428571 50.36521325714 C 354.26971428571 46.20521325714 353.11771428571 41.34121325714 353.11771428571 35.77321325714 C 353.11771428571 30.20521325714 354.25371428571 25.34121325714 356.52571428571 21.18121325714 C 358.79771428571 17.02121325714 361.98171428571 13.82121325714 366.07771428571 11.58121325714 C 370.17371428571 9.34121325714 374.87771428571 8.22121325714 380.18971428571 8.22121325714 C 385.37371428571 8.22121325714 389.98171428571 9.30921325714 394.01371428571 11.48521325714 C 398.04571428571 13.66121325714 401.19771428571 16.76521325714 403.46971428571 20.79721325714 C 405.74171428571 24.82921325714 406.87771428571 29.53321325714 406.87771428571 34.90921325714 C 406.87771428571 36.44521325714 406.78171428571 38.04521325714 406.58971428571 39.70921325714 Z M 390.07771428571 30.58921325714 C 390.07771428571 27.77321325714 389.11771428571 25.53321325714 387.19771428571 23.86921325714 C 385.27771428571 22.20521325714 382.87771428571 21.37321325714 379.99771428571 21.37321325714 C 377.24571428571 21.37321325714 374.92571428571 22.17321325714 373.03771428571 23.77321325714 C 371.14971428571 25.37321325714 369.98171428571 27.64521325714 369.53371428571 30.58921325714 L 390.07771428571 30.58921325714 Z M 431.93371428571 -8.48278674286 L 431.93371428571 62.55721325714 L 415.51771428571 62.55721325714 L 415.51771428571 -8.48278674286 L 431.93371428571 -8.48278674286 Z M 494.04571428571 39.70921325714 L 456.89371428571 39.70921325714 C 457.14971428571 43.03721325714 458.22171428571 45.58121325714 460.10971428571 47.34121325714 C 461.99771428571 49.10121325714 464.31771428571 49.98121325714 467.06971428571 49.98121325714 C 471.16571428571 49.98121325714 474.01371428571 48.25321325714 475.61371428571 44.79721325714 L 493.08571428571 44.79721325714 C 492.18971428571 48.31721325714 490.57371428571 51.48521325714 488.23771428571 54.30121325714 C 485.90171428571 57.11721325714 482.97371428571 59.32521325714 479.45371428571 60.92521325714 C 475.93371428571 62.52521325714 471.99771428571 63.32521325714 467.64571428571 63.32521325714 C 462.39771428571 63.32521325714 457.72571428571 62.20521325714 453.62971428571 59.96521325714 C 449.53371428571 57.72521325714 446.33371428571 54.52521325714 444.02971428571 50.36521325714 C 441.72571428571 46.20521325714 440.57371428571 41.34121325714 440.57371428571 35.77321325714 C 440.57371428571 30.20521325714 441.70971428571 25.34121325714 443.98171428571 21.18121325714 C 446.25371428571 17.02121325714 449.43771428571 13.82121325714 453.53371428571 11.58121325714 C 457.62971428571 9.34121325714 462.33371428571 8.22121325714 467.64571428571 8.22121325714 C 472.82971428571 8.22121325714 477.43771428571 9.30921325714 481.46971428571 11.48521325714 C 485.50171428571 13.66121325714 488.65371428571 16.76521325714 490.92571428571 20.79721325714 C 493.19771428571 24.82921325714 494.33371428571 29.53321325714 494.33371428571 34.90921325714 C 494.33371428571 36.44521325714 494.23771428571 38.04521325714 494.04571428571 39.70921325714 Z M 477.53371428571 30.58921325714 C 477.53371428571 27.77321325714 476.57371428571 25.53321325714 474.65371428571 23.86921325714 C 472.73371428571 22.20521325714 470.33371428571 21.37321325714 467.45371428571 21.37321325714 C 464.70171428571 21.37321325714 462.38171428571 22.17321325714 460.49371428571 23.77321325714 C 458.60571428571 25.37321325714 457.43771428571 27.64521325714 456.98971428571 30.58921325714 L 477.53371428571 30.58921325714 Z M 526.58971428571 10.95721325714 C 529.46971428571 9.26121325714 532.66971428571 8.41321325714 536.18971428571 8.41321325714 L 536.18971428571 25.78921325714 L 531.67771428571 25.78921325714 C 527.58171428571 25.78921325714 524.50971428571 26.66921325714 522.46171428571 28.42921325714 C 520.41371428571 30.18921325714 519.38971428571 33.27721325714 519.38971428571 37.69321325714 L 519.38971428571 62.55721325714 L 502.97371428571 62.55721325714 L 502.97371428571 8.98921325714 L 519.38971428571 8.98921325714 L 519.38971428571 17.91721325714 C 521.30971428571 14.97321325714 523.70971428571 12.65321325714 526.58971428571 10.95721325714 Z"/></svg>